<svg width="110" height="32" viewBox="0 0 110 32" fill="none" xmlns="http://www.w3.org/2000/svg">
<path d="M23.8981 15.5338C23.8981 22.1331 18.5484 27.4828 11.9491 27.4828C5.34978 27.4828 0 22.1331 0 15.5338C0 8.9345 5.34978 3.58472 11.9491 3.58472C18.5484 3.58472 23.8981 8.9345 23.8981 15.5338ZM3.91257 15.5338C3.91257 19.9722 7.51063 23.5703 11.9491 23.5703C16.3875 23.5703 19.9856 19.9722 19.9856 15.5338C19.9856 11.0953 16.3875 7.49728 11.9491 7.49728C7.51063 7.49728 3.91257 11.0953 3.91257 15.5338Z" fill="#8338EC"/>
<path d="M21.4078 24.2866C19.7358 24.2866 18.2708 23.9204 17.0128 23.1879C15.7708 22.4554 14.7915 21.4442 14.0749 20.1544C13.3742 18.8486 13.0239 17.3438 13.0239 15.64C13.0239 13.9362 13.3742 12.4393 14.0749 11.1495C14.7915 9.84373 15.7708 8.82461 17.0128 8.09211C18.2708 7.35962 19.7358 6.99337 21.4078 6.99337C23.0639 6.99337 24.5209 7.35962 25.7789 8.09211C27.0369 8.82461 28.0162 9.84373 28.7168 11.1495C29.4175 12.4393 29.7678 13.9362 29.7678 15.64C29.7678 17.3438 29.4175 18.8486 28.7168 20.1544C28.0162 21.4442 27.0369 22.4554 25.7789 23.1879C24.5209 23.9204 23.0639 24.2866 21.4078 24.2866ZM21.4078 21.5398C23.0002 21.5398 24.2661 21.0143 25.2056 19.9633C26.1611 18.9123 26.6388 17.4712 26.6388 15.64C26.6388 13.8088 26.1611 12.3677 25.2056 11.3167C24.2661 10.2657 23.0002 9.74023 21.4078 9.74023C19.8154 9.74023 18.5415 10.2657 17.5861 11.3167C16.6307 12.3677 16.153 13.8088 16.153 15.64C16.153 17.4712 16.6307 18.9123 17.5861 19.9633C18.5415 21.0143 19.8154 21.5398 21.4078 21.5398ZM32.3956 24V12.1527H35.0947L35.3336 14.1591C35.6998 13.4584 36.2253 12.9011 36.91 12.4871C37.6107 12.0731 38.4307 11.8661 39.3702 11.8661C40.8352 11.8661 41.9738 12.3278 42.7859 13.2514C43.598 14.175 44.0041 15.5285 44.0041 17.312V24H40.9467V17.5986C40.9467 16.5795 40.7397 15.7992 40.3257 15.2578C39.9116 14.7164 39.2667 14.4457 38.3909 14.4457C37.531 14.4457 36.8224 14.7483 36.2651 15.3534C35.7237 15.9585 35.453 16.8024 35.453 17.8853V24H32.3956ZM50.8927 24V9.74023H46.02V7.28H58.8466V9.74023H53.95V24H50.8927ZM59.8735 24V12.1527H62.5965L62.8831 14.3741C63.3131 13.6097 63.8943 13.0046 64.6268 12.5587C65.3752 12.097 66.251 11.8661 67.2542 11.8661V15.0906H66.3943C65.7255 15.0906 65.1284 15.1941 64.6029 15.4011C64.0774 15.6082 63.6634 15.9664 63.3608 16.476C63.0742 16.9856 62.9309 17.6942 62.9309 18.6018V24H59.8735ZM73.4283 24.2866C72.4092 24.2866 71.5732 24.1274 70.9203 23.8089C70.2674 23.4745 69.7817 23.0366 69.4633 22.4952C69.1448 21.9538 68.9855 21.3566 68.9855 20.7038C68.9855 19.605 69.4155 18.7133 70.2754 18.0286C71.1353 17.3438 72.4251 17.0015 74.1449 17.0015H77.1545V16.7149C77.1545 15.9027 76.9236 15.3056 76.4618 14.9234C76 14.5413 75.4267 14.3502 74.742 14.3502C74.121 14.3502 73.5796 14.5014 73.1178 14.804C72.656 15.0906 72.3693 15.5206 72.2579 16.0938H69.2722C69.3518 15.2339 69.6384 14.4855 70.1321 13.8486C70.6416 13.2116 71.2945 12.7259 72.0907 12.3915C72.8869 12.0412 73.7786 11.8661 74.7659 11.8661C76.4538 11.8661 77.7834 12.288 78.7548 13.132C79.7261 13.976 80.2118 15.1702 80.2118 16.7149V24H77.6083L77.3217 22.0891C76.9713 22.7261 76.4777 23.2516 75.8407 23.6656C75.2197 24.0796 74.4156 24.2866 73.4283 24.2866ZM74.121 21.8981C74.9968 21.8981 75.6735 21.6114 76.1513 21.0382C76.6449 20.4649 76.9554 19.7563 77.0828 18.9123H74.4793C73.6671 18.9123 73.0859 19.0636 72.7356 19.3662C72.3853 19.6528 72.2101 20.0111 72.2101 20.441C72.2101 20.9028 72.3853 21.2611 72.7356 21.5159C73.0859 21.7707 73.5477 21.8981 74.121 21.8981ZM88.9337 24.2866C87.7234 24.2866 86.6566 24.0239 85.733 23.4984C84.8094 22.9729 84.0769 22.2404 83.5355 21.3009C83.01 20.3614 82.7473 19.2866 82.7473 18.0763C82.7473 16.8661 83.01 15.7913 83.5355 14.8518C84.0769 13.9123 84.8094 13.1798 85.733 12.6543C86.6566 12.1288 87.7234 11.8661 88.9337 11.8661C90.4464 11.8661 91.7203 12.2642 92.7554 13.0603C93.7904 13.8406 94.4513 14.9234 94.7379 16.3088H91.5133C91.3541 15.7355 91.0356 15.2897 90.5579 14.9712C90.0961 14.6368 89.5467 14.4696 88.9098 14.4696C88.0658 14.4696 87.3492 14.7881 86.7601 15.425C86.1709 16.062 85.8763 16.9458 85.8763 18.0763C85.8763 19.2069 86.1709 20.0907 86.7601 20.7277C87.3492 21.3646 88.0658 21.6831 88.9098 21.6831C89.5467 21.6831 90.0961 21.5238 90.5579 21.2054C91.0356 20.8869 91.3541 20.4331 91.5133 19.8439H94.7379C94.4513 21.1815 93.7904 22.2563 92.7554 23.0685C91.7203 23.8806 90.4464 24.2866 88.9337 24.2866ZM97.4515 24V6.80229H100.509V16.9537L104.713 12.1527H108.343L103.495 17.5509L109.132 24H105.31L100.509 18.0525V24H97.4515Z" fill="#FF006E"/>
</svg>
